<svg width="12" height="13" viewBox="0 0 12 13" fill="none" xmlns="http://www.w3.org/2000/svg">
<path d="M10.5001 2.90583C8.69631 2.72708 6.88173 2.635 5.07256 2.635C4.00006 2.635 2.92756 2.68917 1.85506 2.7975L0.750061 2.90583M3.72923 2.35875L3.84839 1.64917C3.93506 1.13458 4.00006 0.75 4.91548 0.75H6.33464C7.25006 0.75 7.32048 1.15625 7.40173 1.65458L7.52089 2.35875M9.33548 4.6175L8.9834 10.0721C8.92381 10.9225 8.87506 11.5833 7.36381 11.5833H3.88631C2.37506 11.5833 2.32631 10.9225 2.26673 10.0721L1.91464 4.6175M4.72048 8.60417H6.52423M4.27089 6.4375H6.97923" stroke="#333E48" stroke-width="1.5" stroke-linecap="round" stroke-linejoin="round"/>
</svg>
